<svg width="16" height="10" viewBox="0 0 16 10" fill="none" xmlns="http://www.w3.org/2000/svg">
<path d="M14.9565 5C14.1913 4.58333 13.5652 3.91667 13.0783 3.08333C12.7304 2.5 12.3826 1.91667 12.1739 1.25C12.1043 1 12.0348 0.666667 11.9652 0.416667C11.9652 0.333333 11.9652 0.333333 11.9652 0.25C11.9652 0.166667 11.9652 0.166667 12.0348 0.0833333C12.0348 0.0833333 12.1043 0 12.1739 0C12.2435 0 12.313 0 12.3826 0.0833333C12.4522 0.0833333 12.5217 0.166667 12.5217 0.25C12.5217 0.416667 12.5913 0.666667 12.7304 1C12.9391 1.58333 13.2174 2.16667 13.5652 2.66667C14.1217 3.58333 14.9565 4.25 15.8609 4.66667C15.9304 4.66667 16 4.75 16 4.83333C16 4.83333 16 4.91667 16 5C16 5.08333 16 5.16667 15.9304 5.16667C15.9304 5.25 15.8609 5.25 15.7913 5.33333C14.887 5.75 14.1217 6.41667 13.4957 7.33333C13.1478 7.83333 12.8696 8.41667 12.6609 9C12.5913 9.25 12.5217 9.5 12.4522 9.75C12.4522 9.83333 12.3826 9.91667 12.313 10C12.3826 10 12.2435 10 12.1739 10C12.1043 10 12.0348 9.91667 11.9652 9.83333C11.8957 9.75 11.8957 9.66667 11.8957 9.58333C11.9652 9.25 12.0348 9 12.1043 8.75C12.313 8.08333 12.5913 7.5 13.0087 6.91667C13.5652 6.08333 14.2609 5.41667 14.9565 5ZM12.313 5.33333H0.208696C0.13913 5.33333 0.0695652 5.33333 0.0695652 5.25C0 5.16667 0 5.08333 0 5C0 4.91667 0 4.83333 0.0695652 4.75C0.13913 4.66667 0.13913 4.66667 0.208696 4.66667H12.3826C12.4522 4.66667 12.5217 4.66667 12.5217 4.75C12.5217 4.83333 12.5217 4.91667 12.5217 5C12.5217 5.08333 12.5217 5.16667 12.4522 5.25C12.4522 5.33333 12.3826 5.33333 12.313 5.33333Z" fill="white"/>
</svg>
