<svg width="20" height="20" viewBox="0 0 20 20" fill="none" xmlns="http://www.w3.org/2000/svg">
<g clip-path="url(#clip0)">
<path d="M19.5344 17.6412C19.7357 17.9313 19.8287 18.2829 19.7972 18.6346C19.7656 18.9862 19.6116 19.3157 19.3619 19.5654C19.1122 19.815 18.7828 19.9691 18.4311 20.0006C18.0794 20.0321 17.7278 19.9391 17.4377 19.7378C17.4377 19.7378 16.1822 18.8716 14.412 17.4152C13.5457 16.6996 12.5664 15.8584 11.5369 14.9042C11.0804 14.5084 10.4964 14.2906 9.89222 14.2906C9.28801 14.2906 8.70407 14.5084 8.24752 14.9042C7.23057 15.8333 6.26384 16.6744 5.39755 17.4152C3.63986 18.8339 2.35926 19.7378 2.35926 19.7378C2.10874 19.9123 1.81079 20.0058 1.50552 20.0058C1.20025 20.0058 0.902309 19.9123 0.651788 19.7378C0.324557 19.5095 0.100301 19.1616 0.0274749 18.7693C-0.0453507 18.377 0.0391022 17.9717 0.262586 17.6412C0.262586 17.6412 1.14143 16.3857 2.5978 14.6154C3.30088 13.8119 4.14206 12.7699 5.0209 11.7529C5.24173 11.5277 5.41543 11.2606 5.53184 10.9675C5.64824 10.6743 5.70503 10.3608 5.69887 10.0454C5.71769 9.7173 5.66703 9.38889 5.5502 9.08167C5.43337 8.77446 5.25301 8.49536 5.0209 8.26265C4.14206 7.23314 3.30088 6.27897 2.5978 5.40012C1.14143 3.62988 0.262586 2.37439 0.262586 2.37439C0.0391022 2.04382 -0.0453507 1.6386 0.0274749 1.24628C0.100301 0.853964 0.324557 0.506049 0.651788 0.277713C0.900908 0.09979 1.19939 0.00414491 1.50552 0.00414491C1.81166 0.00414491 2.11014 0.09979 2.35926 0.277713C2.35926 0.277713 3.63986 1.13145 5.39755 2.58782C6.2764 3.31601 7.23057 4.14463 8.24752 5.02348C8.6966 5.4346 9.28337 5.66264 9.89222 5.66264C10.5011 5.66264 11.0878 5.4346 11.5369 5.02348C12.5664 4.09441 13.5457 3.26579 14.412 2.51249C16.1697 1.13145 17.4377 0.277713 17.4377 0.277713C17.599 0.161489 17.782 0.0788993 17.9758 0.0348631C18.1696 -0.0091732 18.3703 -0.0137559 18.5659 0.0213877C18.7616 0.0565314 18.9481 0.130683 19.1145 0.239427C19.2809 0.34817 19.4237 0.489283 19.5344 0.654361C19.7099 0.906808 19.804 1.20691 19.804 1.51437C19.804 1.82184 19.7099 2.12194 19.5344 2.37439C19.5344 2.37439 18.6681 3.62988 17.2117 5.40012C16.4836 6.25386 15.6675 7.22059 14.7008 8.22498C14.2669 8.72818 14.0502 9.38279 14.0981 10.0454C14.0807 10.6997 14.3195 11.3349 14.7635 11.8157C15.6675 12.8326 16.4836 13.7868 17.2745 14.6531C18.6681 16.3229 19.5344 17.6412 19.5344 17.6412Z" fill="white"/>
</g>
<defs>
<clipPath id="clip0">
<rect width="19.7991" height="20" fill="white"/>
</clipPath>
</defs>
</svg>
