<svg width="125" height="50" viewBox="0 0 125 50" fill="none" xmlns="http://www.w3.org/2000/svg">
<g clip-path="url(#clip0)">
<path d="M6.93815e-08 42.8316C-6.2491e-05 42.7227 0.0421845 42.6181 0.117819 42.5398C0.193454 42.4615 0.296554 42.4157 0.405348 42.412H2.53876C3.03488 42.3829 3.53171 42.4556 3.99877 42.6254C4.46582 42.7952 4.89325 43.0587 5.25484 43.3996C5.61642 43.7406 5.90453 44.1518 6.10149 44.6081C6.29845 45.0643 6.40011 45.5561 6.40023 46.053C6.40022 46.5531 6.29779 47.0479 6.09924 47.507C5.9007 47.966 5.61025 48.3795 5.24579 48.7219C4.88134 49.0644 4.4506 49.3286 3.98014 49.4982C3.50968 49.6679 3.00946 49.7393 2.51031 49.7083H0.376902C0.277367 49.6998 0.184297 49.6554 0.114979 49.5835C0.0456608 49.5116 0.00480523 49.4169 6.93815e-08 49.3171V42.8316ZM2.53876 48.9687C2.92814 48.995 3.31878 48.941 3.68637 48.8099C4.05396 48.6787 4.39064 48.4734 4.67546 48.2066C4.96029 47.9398 5.18716 47.6172 5.34196 47.259C5.49677 46.9007 5.5762 46.5144 5.57531 46.1241C5.58312 45.7297 5.50879 45.3379 5.35706 44.9738C5.20532 44.6096 4.97949 44.281 4.69392 44.0088C4.40835 43.7366 4.06928 43.5268 3.69825 43.3927C3.32723 43.2586 2.93237 43.2031 2.53876 43.2298H0.824918V49.0185L2.53876 48.9687Z" fill="white"/>
<path d="M10.0909 42.8319C10.0909 42.723 10.1331 42.6184 10.2088 42.5401C10.2844 42.4619 10.3875 42.416 10.4963 42.4123H13.2342C13.9951 42.3672 14.7433 42.6226 15.3178 43.1235C15.6843 43.5056 15.886 44.0163 15.8796 44.5457C15.8815 45.0821 15.6813 45.5994 15.3189 45.9948C14.9564 46.3901 14.4584 46.6345 13.924 46.6792L15.7445 49.0686C15.8081 49.1238 15.853 49.1974 15.8728 49.2793C15.8927 49.3611 15.8865 49.4471 15.8553 49.5253C15.824 49.6036 15.7691 49.6701 15.6983 49.7157C15.6274 49.7612 15.5442 49.7836 15.46 49.7797C15.383 49.7768 15.3077 49.7552 15.2409 49.7168C15.174 49.6784 15.1174 49.6243 15.076 49.5593L13.0208 46.8854H10.8874V49.3601C10.8874 49.4695 10.844 49.5744 10.7666 49.6518C10.6893 49.7291 10.5844 49.7726 10.475 49.7726C10.3656 49.7726 10.2607 49.7291 10.1833 49.6518C10.106 49.5744 10.0625 49.4695 10.0625 49.3601L10.0909 42.8319ZM13.1631 46.1458C14.2582 46.1458 15.0476 45.584 15.0476 44.6453C15.0476 43.7422 14.3364 43.223 13.1773 43.223H10.9159V46.1885L13.1631 46.1458Z" fill="white"/>
<path d="M19.1154 46.0961C19.0934 45.5926 19.1736 45.0898 19.3511 44.6181C19.5286 44.1464 19.7998 43.7155 20.1483 43.3515C20.4969 42.9874 20.9155 42.6976 21.379 42.4997C21.8425 42.3018 22.3413 42.1997 22.8453 42.1997C23.3493 42.1997 23.8481 42.3018 24.3116 42.4997C24.7751 42.6976 25.1937 42.9874 25.5422 43.3515C25.8907 43.7155 26.1619 44.1464 26.3395 44.6181C26.517 45.0898 26.5972 45.5926 26.5752 46.0961C26.5972 46.5996 26.517 47.1024 26.3395 47.5741C26.1619 48.0458 25.8907 48.4766 25.5422 48.8407C25.1937 49.2048 24.7751 49.4945 24.3116 49.6925C23.8481 49.8904 23.3493 49.9924 22.8453 49.9924C22.3413 49.9924 21.8425 49.8904 21.379 49.6925C20.9155 49.4945 20.4969 49.2048 20.1483 48.8407C19.7998 48.4766 19.5286 48.0458 19.3511 47.5741C19.1736 47.1024 19.0934 46.5996 19.1154 46.0961ZM25.7218 46.0961C25.7371 45.7064 25.6739 45.3177 25.5359 44.953C25.3979 44.5883 25.188 44.2551 24.9186 43.9731C24.6493 43.6912 24.326 43.4663 23.968 43.3117C23.61 43.1572 23.2245 43.0763 22.8346 43.0737C22.4475 43.0732 22.0644 43.1516 21.7087 43.3042C21.3529 43.4569 21.0321 43.6805 20.7658 43.9614C20.4995 44.2424 20.2934 44.5747 20.16 44.9381C20.0266 45.3015 19.9688 45.6882 19.9901 46.0747C19.9787 46.4603 20.0441 46.8442 20.1826 47.2042C20.321 47.5641 20.5296 47.893 20.7963 48.1716C21.063 48.4502 21.3824 48.673 21.736 48.827C22.0896 48.981 22.4703 49.0631 22.8559 49.0686C23.2423 49.0719 23.6253 48.9965 23.9815 48.8469C24.3378 48.6973 24.6598 48.4767 24.928 48.1985C25.1961 47.9203 25.4048 47.5905 25.5413 47.229C25.6778 46.8675 25.7392 46.4821 25.7218 46.0961Z" fill="white"/>
<path d="M30.2372 42.789C30.2408 42.6815 30.2857 42.5794 30.3624 42.504C30.4392 42.4285 30.542 42.3855 30.6497 42.3837H30.7634C30.8471 42.3855 30.9289 42.4086 31.0011 42.451C31.0733 42.4933 31.1335 42.5534 31.1759 42.6255L35.6205 48.3146V42.7677C35.6205 42.7139 35.6312 42.6606 35.652 42.6109C35.6728 42.5613 35.7033 42.5163 35.7417 42.4785C35.7801 42.4408 35.8257 42.4111 35.8757 42.3912C35.9257 42.3712 35.9791 42.3614 36.033 42.3624C36.138 42.3661 36.2375 42.4104 36.3104 42.486C36.3834 42.5616 36.4242 42.6626 36.4241 42.7677V49.3742C36.427 49.4245 36.4196 49.4749 36.4023 49.5222C36.385 49.5696 36.3583 49.6129 36.3236 49.6495C36.289 49.6862 36.2472 49.7153 36.2009 49.7352C36.1546 49.7551 36.1047 49.7654 36.0543 49.7653H36.0116C35.9255 49.7581 35.842 49.7321 35.7671 49.6891C35.6921 49.646 35.6275 49.5871 35.5778 49.5164L31.0408 43.7135V49.4026C31.0484 49.4599 31.0437 49.5181 31.027 49.5734C31.0103 49.6287 30.982 49.6797 30.944 49.7232C30.9059 49.7666 30.859 49.8015 30.8064 49.8253C30.7538 49.8492 30.6967 49.8615 30.639 49.8615C30.5812 49.8615 30.5241 49.8492 30.4715 49.8253C30.419 49.8015 30.3721 49.7666 30.334 49.7232C30.296 49.6797 30.2676 49.6287 30.251 49.5734C30.2343 49.5181 30.2296 49.4599 30.2372 49.4026V42.789Z" fill="white"/>
<path d="M40.4705 49.3172V42.8317C40.4722 42.7222 40.516 42.6175 40.5928 42.5394C40.6696 42.4613 40.7735 42.4157 40.8829 42.4121H45.4271C45.527 42.4121 45.6229 42.4518 45.6936 42.5225C45.7643 42.5932 45.804 42.689 45.804 42.789C45.8049 42.8388 45.7958 42.8882 45.7772 42.9344C45.7586 42.9805 45.7309 43.0225 45.6957 43.0577C45.6605 43.0929 45.6186 43.1206 45.5724 43.1392C45.5263 43.1578 45.4768 43.1669 45.4271 43.1659H41.3025V45.6691H44.9577C45.0577 45.6691 45.1535 45.7088 45.2242 45.7795C45.2949 45.8502 45.3346 45.9461 45.3346 46.046C45.3346 46.0952 45.3248 46.1439 45.3058 46.1892C45.2868 46.2345 45.2589 46.2756 45.2238 46.31C45.1887 46.3445 45.1471 46.3716 45.1014 46.3897C45.0557 46.4079 45.0069 46.4167 44.9577 46.4158H41.3025V48.983H45.5124C45.5658 48.9756 45.6201 48.9798 45.6717 48.9951C45.7233 49.0105 45.771 49.0368 45.8116 49.0722C45.8522 49.1075 45.8848 49.1512 45.9071 49.2002C45.9294 49.2493 45.941 49.3025 45.941 49.3564C45.941 49.4102 45.9294 49.4634 45.9071 49.5125C45.8848 49.5615 45.8522 49.6052 45.8116 49.6405C45.771 49.6759 45.7233 49.7022 45.6717 49.7176C45.6201 49.7329 45.5658 49.7371 45.5124 49.7297H40.8829C40.7741 49.7279 40.6702 49.6838 40.5933 49.6069C40.5163 49.5299 40.4723 49.4261 40.4705 49.3172Z" fill="white"/>
<path d="M54.1102 48.8551C54.0608 48.8195 54.0207 48.7724 53.9935 48.7179C53.9662 48.6634 53.9526 48.6031 53.9537 48.5422C53.9518 48.4887 53.9607 48.4354 53.9799 48.3854C53.999 48.3354 54.0281 48.2899 54.0652 48.2514C54.1024 48.2129 54.147 48.1822 54.1962 48.1613C54.2455 48.1404 54.2985 48.1297 54.352 48.1297C54.398 48.1291 54.4437 48.1375 54.4864 48.1546C54.5291 48.1717 54.568 48.1971 54.6009 48.2293C55.2309 48.788 56.0489 49.0878 56.8907 49.0684C57.8721 49.0684 58.5192 48.5422 58.5192 47.8239C58.5192 47.1128 58.1566 46.7572 56.6205 46.4017C54.9351 46.039 54.16 45.4914 54.16 44.2683C54.16 43.1162 55.1769 42.27 56.5636 42.27C57.3991 42.237 58.2211 42.4877 58.8961 42.9811C58.9499 43.019 58.994 43.069 59.0249 43.127C59.0558 43.1851 59.0726 43.2496 59.0739 43.3153C59.0739 43.3676 59.0636 43.4194 59.0436 43.4677C59.0236 43.5161 58.9943 43.56 58.9573 43.5969C58.9203 43.6339 58.8764 43.6632 58.8281 43.6833C58.7798 43.7033 58.728 43.7136 58.6757 43.7136C58.5897 43.7152 58.5053 43.6904 58.4339 43.6425C57.893 43.2229 57.2268 42.9975 56.5423 43.0024C55.5965 43.0024 54.9849 43.5287 54.9849 44.1829C54.9849 44.8941 55.3618 45.2638 56.9761 45.6052C58.5904 45.9465 59.3584 46.5581 59.3584 47.6746C59.3584 48.9333 58.313 49.744 56.8623 49.744C55.8694 49.7771 54.8961 49.4627 54.1102 48.8551Z" fill="white"/>
<path d="M63.0068 42.7819C63.0058 42.7277 63.0156 42.6739 63.0354 42.6235C63.0553 42.5731 63.0849 42.5271 63.1225 42.4881C63.1602 42.4492 63.2051 42.418 63.2548 42.3964C63.3045 42.3748 63.358 42.3632 63.4121 42.3623C63.4672 42.3623 63.5218 42.3732 63.5727 42.3942C63.6236 42.4153 63.6698 42.4462 63.7088 42.4852C63.7478 42.5242 63.7787 42.5704 63.7998 42.6213C63.8208 42.6722 63.8317 42.7268 63.8317 42.7819V45.6691H68.0559V42.7819C68.0559 42.7277 68.0665 42.6741 68.0873 42.624C68.108 42.574 68.1384 42.5285 68.1767 42.4902C68.215 42.4519 68.2604 42.4215 68.3105 42.4008C68.3605 42.3801 68.4141 42.3694 68.4683 42.3694C68.5225 42.3694 68.5761 42.3801 68.6262 42.4008C68.6762 42.4215 68.7217 42.4519 68.76 42.4902C68.7983 42.5285 68.8286 42.574 68.8494 42.624C68.8701 42.6741 68.8808 42.7277 68.8808 42.7819V49.367C68.8808 49.4212 68.8701 49.4748 68.8494 49.5248C68.8286 49.5749 68.7983 49.6203 68.76 49.6586C68.7217 49.697 68.6762 49.7273 68.6262 49.7481C68.5761 49.7688 68.5225 49.7795 68.4683 49.7795C68.4141 49.7795 68.3605 49.7688 68.3105 49.7481C68.2604 49.7273 68.215 49.697 68.1767 49.6586C68.1384 49.6203 68.108 49.5749 68.0873 49.5248C68.0665 49.4748 68.0559 49.4212 68.0559 49.367V46.4371H63.8317V49.367C63.8299 49.4777 63.7851 49.5834 63.7068 49.6617C63.6285 49.7399 63.5228 49.7847 63.4121 49.7866C63.3033 49.7829 63.2002 49.737 63.1246 49.6588C63.049 49.5805 63.0067 49.4759 63.0068 49.367V42.7819Z" fill="white"/>
<path d="M72.536 46.0958C72.536 45.1056 72.9293 44.156 73.6295 43.4558C74.3296 42.7557 75.2793 42.3623 76.2694 42.3623C77.2596 42.3623 78.2092 42.7557 78.9094 43.4558C79.6096 44.156 80.0029 45.1056 80.0029 46.0958C80.0124 46.5922 79.9223 47.0855 79.7378 47.5465C79.5533 48.0075 79.2781 48.4268 78.9287 48.7795C78.5793 49.1323 78.1626 49.4113 77.7034 49.6002C77.2442 49.7891 76.7517 49.8839 76.2552 49.879C75.7594 49.886 75.2674 49.7924 74.8088 49.6039C74.3502 49.4154 73.9345 49.136 73.5869 48.7824C73.2393 48.4288 72.967 48.0084 72.7863 47.5467C72.6057 47.0849 72.5205 46.5914 72.536 46.0958ZM79.1424 46.0958C79.1577 45.7061 79.0945 45.3174 78.9565 44.9527C78.8185 44.588 78.6086 44.2548 78.3392 43.9728C78.0699 43.6909 77.7466 43.466 77.3886 43.3114C77.0306 43.1569 76.6451 43.076 76.2552 43.0734C75.8681 43.0729 75.485 43.1513 75.1293 43.3039C74.7735 43.4566 74.4527 43.6802 74.1864 43.9611C73.9201 44.2421 73.714 44.5744 73.5806 44.9378C73.4472 45.3012 73.3894 45.6879 73.4107 46.0744C73.3993 46.4599 73.4647 46.8439 73.6031 47.2039C73.7415 47.5638 73.9502 47.8927 74.2169 48.1713C74.4836 48.4499 74.803 48.6727 75.1566 48.8267C75.5102 48.9807 75.8909 49.0628 76.2765 49.0683C76.6629 49.0716 77.0459 48.9962 77.4021 48.8466C77.7584 48.697 78.0804 48.4764 78.3486 48.1982C78.6167 47.92 78.8254 47.5902 78.9619 47.2287C79.0984 46.8672 79.1598 46.4818 79.1424 46.0958Z" fill="white"/>
<path d="M82.8544 42.9671C82.8294 42.9085 82.815 42.8459 82.8118 42.7822C82.8154 42.6709 82.8617 42.5652 82.9412 42.4871C83.0206 42.409 83.1271 42.3644 83.2385 42.3626C83.3385 42.3669 83.4345 42.403 83.5126 42.4657C83.5906 42.5283 83.6466 42.6143 83.6722 42.7111L85.6848 48.5211L87.5977 42.6898C87.6188 42.5964 87.6712 42.513 87.7463 42.4535C87.8213 42.394 87.9144 42.3619 88.0102 42.3626H88.06C88.1545 42.3635 88.246 42.3963 88.3195 42.4557C88.3931 42.5151 88.4445 42.5975 88.4653 42.6898L90.3783 48.5211L92.4477 42.6684C92.4668 42.578 92.5157 42.4965 92.5866 42.4372C92.6576 42.3779 92.7464 42.3441 92.8388 42.3413C92.9466 42.3446 93.0493 42.388 93.1269 42.4629C93.2045 42.5379 93.2513 42.639 93.2584 42.7467C93.2527 42.8153 93.2359 42.8826 93.2086 42.9458L90.8689 49.4527C90.8435 49.5502 90.7879 49.6372 90.7099 49.7011C90.632 49.7649 90.5358 49.8025 90.4352 49.8082H90.3143C90.2136 49.8025 90.1174 49.7649 90.0395 49.7011C89.9616 49.6372 89.9059 49.5502 89.8805 49.4527L87.9817 43.8276L86.0901 49.4527C86.0647 49.5502 86.009 49.6372 85.9311 49.7011C85.8531 49.7649 85.7569 49.8025 85.6563 49.8082H85.5994C85.4978 49.8059 85.3999 49.7697 85.3212 49.7052C85.2426 49.6408 85.1878 49.5519 85.1656 49.4527L82.8544 42.9671Z" fill="white"/>
<path d="M96.2595 48.8552C96.2101 48.8196 96.17 48.7725 96.1428 48.718C96.1155 48.6635 96.1019 48.6032 96.103 48.5423C96.1011 48.4888 96.11 48.4355 96.1292 48.3856C96.1483 48.3356 96.1774 48.29 96.2145 48.2515C96.2517 48.213 96.2962 48.1824 96.3455 48.1615C96.3948 48.1406 96.4478 48.1298 96.5013 48.1299C96.5474 48.1284 96.5933 48.1365 96.6361 48.1536C96.679 48.1707 96.7178 48.1966 96.7502 48.2294C97.3856 48.7933 98.2122 49.0934 99.0614 49.0686C100.043 49.0686 100.697 48.5423 100.697 47.8241C100.697 47.1129 100.327 46.7574 98.7911 46.4018C97.1057 46.0391 96.3377 45.4916 96.3377 44.2684C96.3377 43.1164 97.3475 42.2701 98.7414 42.2701C99.5766 42.2394 100.398 42.4898 101.074 42.9812C101.125 43.021 101.167 43.0715 101.197 43.1293C101.226 43.1871 101.242 43.2506 101.245 43.3155C101.243 43.3884 101.222 43.4596 101.183 43.5215C101.145 43.5834 101.09 43.6338 101.025 43.6673C100.961 43.7008 100.888 43.7162 100.815 43.7118C100.742 43.7075 100.672 43.6836 100.612 43.6426C100.069 43.2255 99.4041 43.0004 98.72 43.0026C97.7671 43.0026 97.1626 43.5288 97.1626 44.1831C97.1626 44.8942 97.5395 45.264 99.1467 45.6053C100.754 45.9467 101.529 46.5583 101.529 47.6747C101.529 48.9335 100.484 49.7441 99.0329 49.7441C98.0328 49.7823 97.0511 49.4676 96.2595 48.8552Z" fill="white"/>
<path d="M118.561 47.1554H117.85C117.77 47.1438 117.698 47.1039 117.645 47.0432C117.593 46.9825 117.564 46.905 117.564 46.8248C117.564 46.7445 117.593 46.667 117.645 46.6063C117.698 46.5456 117.77 46.5058 117.85 46.4941H120.019C120.098 46.5058 120.17 46.5456 120.223 46.6063C120.275 46.667 120.304 46.7445 120.304 46.8248C120.304 46.905 120.275 46.9825 120.223 47.0432C120.17 47.1039 120.098 47.1438 120.019 47.1554H119.307V49.4595C119.295 49.5497 119.25 49.6323 119.182 49.6921C119.113 49.7519 119.025 49.7848 118.934 49.7848C118.843 49.7848 118.755 49.7519 118.686 49.6921C118.618 49.6323 118.573 49.5497 118.561 49.4595V47.1554ZM120.971 46.8141C120.971 46.7179 121.01 46.6257 121.078 46.5576C121.146 46.4896 121.238 46.4514 121.334 46.4514H121.419C121.486 46.4516 121.551 46.4695 121.609 46.5033C121.666 46.537 121.714 46.5854 121.747 46.6434L122.607 48.0657L123.489 46.6434C123.518 46.5838 123.563 46.5339 123.62 46.4998C123.677 46.4657 123.743 46.4489 123.809 46.4514H123.894C123.941 46.4523 123.987 46.4625 124.03 46.4812C124.073 46.4999 124.111 46.5269 124.144 46.5606C124.176 46.5942 124.201 46.634 124.218 46.6775C124.235 46.721 124.244 46.7674 124.243 46.8141V49.4809C124.243 49.5752 124.205 49.6656 124.139 49.7323C124.072 49.799 123.981 49.8364 123.887 49.8364C123.793 49.8364 123.702 49.799 123.636 49.7323C123.569 49.6656 123.532 49.5752 123.532 49.4809V47.767L122.892 48.7555C122.866 48.8129 122.823 48.8615 122.771 48.8956C122.718 48.9296 122.656 48.9477 122.593 48.9475C122.529 48.9465 122.467 48.9281 122.413 48.8942C122.359 48.8604 122.316 48.8124 122.287 48.7555L121.661 47.7884V49.4809C121.661 49.5752 121.624 49.6656 121.557 49.7323C121.49 49.799 121.4 49.8364 121.306 49.8364C121.211 49.8364 121.121 49.799 121.054 49.7323C120.988 49.6656 120.95 49.5752 120.95 49.4809L120.971 46.8141Z" fill="white"/>
<path d="M124.698 13.7392L111.897 49.6729C111.863 49.7697 111.799 49.8533 111.715 49.9119C111.631 49.9706 111.53 50.0014 111.428 50H106.77C106.719 49.9995 106.669 49.9869 106.624 49.9632C106.579 49.9394 106.54 49.9053 106.511 49.8635C106.482 49.8218 106.463 49.7737 106.456 49.7232C106.449 49.6728 106.454 49.6214 106.471 49.5733L110.276 38.3089C110.39 37.9943 110.39 37.6493 110.276 37.3347L101.692 13.7392C101.675 13.6912 101.67 13.6398 101.677 13.5893C101.684 13.5388 101.703 13.4907 101.732 13.449C101.761 13.4073 101.8 13.3731 101.845 13.3494C101.89 13.3256 101.94 13.313 101.991 13.3125H106.67C106.772 13.3132 106.872 13.3448 106.956 13.4032C107.04 13.4616 107.104 13.544 107.14 13.6396L113.199 30.7069C113.214 30.7488 113.243 30.7849 113.279 30.8103C113.316 30.8358 113.36 30.8494 113.405 30.8494C113.45 30.8494 113.493 30.8358 113.53 30.8103C113.567 30.7849 113.595 30.7488 113.611 30.7069L119.627 13.6752C119.66 13.5782 119.722 13.4939 119.805 13.434C119.888 13.3741 119.987 13.3415 120.089 13.3409H124.427C124.473 13.3466 124.516 13.3618 124.555 13.3855C124.594 13.4093 124.627 13.4411 124.653 13.4788C124.678 13.5165 124.696 13.5593 124.703 13.6042C124.711 13.6491 124.709 13.6951 124.698 13.7392Z" fill="white"/>
<path d="M0.291531 3.11475H20.4878C20.5658 3.1166 20.6399 3.14889 20.6944 3.2047C20.7489 3.26051 20.7794 3.33543 20.7794 3.41342V7.92203C20.7794 7.99936 20.7487 8.07352 20.694 8.1282C20.6393 8.18288 20.5651 8.21359 20.4878 8.21359H5.29082C5.2399 8.21359 5.19106 8.23382 5.15505 8.26983C5.11904 8.30584 5.09881 8.35468 5.09881 8.4056V21.4763C5.09881 21.5272 5.11904 21.576 5.15505 21.6121C5.19106 21.6481 5.2399 21.6683 5.29082 21.6683H15.5383C15.6156 21.6683 15.6898 21.699 15.7445 21.7537C15.7991 21.8084 15.8299 21.8825 15.8299 21.9599V26.4685C15.8299 26.5465 15.7994 26.6214 15.7449 26.6772C15.6904 26.733 15.6163 26.7653 15.5383 26.7671H5.29082C5.2411 26.7671 5.19331 26.7864 5.1575 26.8208C5.12169 26.8553 5.10065 26.9024 5.09881 26.952V37.0431C5.09881 37.1204 5.06809 37.1946 5.01342 37.2492C4.95874 37.3039 4.88457 37.3346 4.80725 37.3346H0.291531C0.214203 37.3346 0.140042 37.3039 0.0853624 37.2492C0.0306831 37.1946 -3.53273e-05 37.1204 -3.53273e-05 37.0431V3.41342C-0.000983983 3.37454 0.0058567 3.33586 0.0200839 3.29966C0.0343112 3.26346 0.0556374 3.23047 0.0828068 3.20264C0.109976 3.17481 0.14244 3.1527 0.178286 3.1376C0.214132 3.1225 0.252636 3.11473 0.291531 3.11475Z" fill="white"/>
<path d="M26.0204 13.3125H30.5362C30.6135 13.3125 30.6877 13.3432 30.7423 13.3979C30.797 13.4526 30.8277 13.5267 30.8277 13.6041V37.0716C30.8277 37.1489 30.797 37.2231 30.7423 37.2777C30.6877 37.3324 30.6135 37.3631 30.5362 37.3631H26.0204C25.9431 37.3631 25.869 37.3324 25.8143 37.2777C25.7596 37.2231 25.7289 37.1489 25.7289 37.0716V13.6041C25.7289 13.5267 25.7596 13.4526 25.8143 13.3979C25.869 13.3432 25.9431 13.3125 26.0204 13.3125Z" fill="white"/>
<path d="M33.7289 9.99147C33.8297 10.1326 33.8839 10.3016 33.8839 10.475C33.8839 10.6484 33.8297 10.8175 33.7289 10.9586C33.6661 11.0519 33.5854 11.1317 33.4914 11.1935C33.3973 11.2552 33.292 11.2975 33.1814 11.3181C33.0708 11.3386 32.9573 11.3369 32.8474 11.313C32.7375 11.2891 32.6334 11.2436 32.5413 11.1791C32.5413 11.1791 31.8302 10.6884 30.8275 9.86347C30.3439 9.45812 29.7892 8.98166 29.2061 8.44119C28.9475 8.21703 28.6168 8.09363 28.2745 8.09363C27.9323 8.09363 27.6015 8.21703 27.3429 8.44119C26.7669 8.96744 26.2122 9.4439 25.7287 9.86347C24.726 10.6884 24.0006 11.1791 24.0006 11.1791C23.8602 11.2782 23.6925 11.3315 23.5206 11.3315C23.3487 11.3315 23.181 11.2782 23.0406 11.1791C22.9475 11.1162 22.8677 11.0355 22.8059 10.9417C22.744 10.8479 22.7013 10.7429 22.6801 10.6325C22.659 10.5222 22.6598 10.4088 22.6826 10.2988C22.7054 10.1887 22.7497 10.0843 22.813 9.99147C22.813 9.99147 23.3179 9.28034 24.1428 8.27763C24.5411 7.78695 25.0175 7.23226 25.5651 6.65624C25.797 6.389 25.9168 6.04251 25.8993 5.6891C25.9091 5.50894 25.8826 5.32866 25.8215 5.15889C25.7605 4.98912 25.666 4.8333 25.5438 4.70062C25.0175 4.11749 24.5411 3.5628 24.1215 3.07923C23.2966 2.07652 22.7917 1.36539 22.7917 1.36539C22.726 1.27052 22.6803 1.16332 22.6572 1.05028C22.6342 0.937233 22.6343 0.820688 22.6575 0.707687C22.6808 0.594687 22.7267 0.487577 22.7926 0.392832C22.8584 0.298087 22.9428 0.217674 23.0406 0.156455C23.1806 0.0562762 23.3484 0.00241255 23.5206 0.00241255C23.6927 0.00241255 23.8606 0.0562762 24.0006 0.156455C24.0006 0.156455 24.7117 0.640028 25.7287 1.46495C26.2122 1.87741 26.7669 2.34676 27.3429 2.88722C27.5973 3.12009 27.9297 3.24925 28.2745 3.24925C28.6194 3.24925 28.9517 3.12009 29.2061 2.88722C29.7892 2.36098 30.3439 1.89163 30.8275 1.46495C31.8302 0.640028 32.5413 0.156455 32.5413 0.156455C32.6327 0.0906236 32.7363 0.0438433 32.8461 0.0189003C32.9559 -0.00604272 33.0696 -0.00863848 33.1804 0.0112676C33.2912 0.0311737 33.3969 0.0731746 33.4911 0.134769C33.5854 0.196364 33.6662 0.276293 33.7289 0.369796C33.8293 0.512399 33.8832 0.682532 33.8832 0.856925C33.8832 1.03132 33.8293 1.20145 33.7289 1.34405C33.7289 1.34405 33.2454 2.05519 32.4133 3.05789C32.0009 3.55569 31.5458 4.08904 31.0266 4.65795C30.8999 4.79685 30.8019 4.9595 30.7385 5.13649C30.675 5.31349 30.6472 5.50131 30.6568 5.6891C30.6451 6.05869 30.7777 6.41835 31.0266 6.6918C31.5458 7.26782 32.008 7.80828 32.4133 8.29897C33.2454 9.24478 33.7289 9.99147 33.7289 9.99147Z" fill="white"/>
<path d="M46.0176 13.6892V17.5009C46.0158 17.5588 45.992 17.6138 45.951 17.6548C45.9101 17.6958 45.855 17.7196 45.7971 17.7213C42.9526 17.7853 41.0183 19.2147 41.0183 22.1233V37.0571C41.0183 37.1345 40.9876 37.2086 40.9329 37.2633C40.8782 37.318 40.804 37.3487 40.7267 37.3487H36.2181C36.1401 37.3487 36.0652 37.3182 36.0094 37.2637C35.9536 37.2093 35.9213 37.1351 35.9194 37.0571V22.1233C36.0545 16.4342 39.852 13.4403 45.6407 13.3194C45.6898 13.3185 45.7387 13.3273 45.7844 13.3455C45.8301 13.3636 45.8717 13.3907 45.9068 13.4252C45.9419 13.4596 45.9697 13.5007 45.9888 13.546C46.0078 13.5914 46.0176 13.64 46.0176 13.6892Z" fill="white"/>
<path d="M81.1479 11.9326C81.1479 9.01697 83.0608 7.5947 85.9196 7.52358C85.9769 7.52361 86.0319 7.50137 86.073 7.46155C86.1142 7.42173 86.1382 7.36747 86.1401 7.31024V3.49144C86.1401 3.44228 86.1303 3.3936 86.1112 3.34827C86.0922 3.30293 86.0643 3.26185 86.0292 3.22741C85.9942 3.19298 85.9525 3.16589 85.9069 3.14773C85.8612 3.12957 85.8123 3.1207 85.7632 3.12165C79.9745 3.24254 76.177 6.20798 76.049 11.9326V37.0429C76.0481 37.0817 76.0549 37.1204 76.0692 37.1566C76.0834 37.1928 76.1047 37.2258 76.1319 37.2536C76.159 37.2815 76.1915 37.3036 76.2274 37.3187C76.2632 37.3338 76.3017 37.3415 76.3406 37.3415H80.8492C80.9284 37.3415 81.0044 37.3101 81.0604 37.2541C81.1164 37.198 81.1479 37.1221 81.1479 37.0429V27.0229C81.1478 26.9732 81.1671 26.9254 81.2016 26.8896C81.2361 26.8538 81.2831 26.8328 81.3328 26.8309H85.9481C86.0254 26.8309 86.0995 26.8002 86.1542 26.7455C86.2089 26.6909 86.2396 26.6167 86.2396 26.5394V22.1445C86.2396 22.0672 86.2089 21.9931 86.1542 21.9384C86.0995 21.8837 86.0254 21.853 85.9481 21.853H81.3328C81.2831 21.8511 81.2361 21.8301 81.2016 21.7943C81.1671 21.7585 81.1478 21.7107 81.1479 21.661V11.9326Z" fill="white"/>
<path d="M96.1458 3.11475H91.6301C91.469 3.11475 91.3385 3.24528 91.3385 3.40631V36.6662C91.3385 36.8272 91.469 36.9577 91.6301 36.9577H96.1458C96.3068 36.9577 96.4373 36.8272 96.4373 36.6662V3.40631C96.4373 3.24528 96.3068 3.11475 96.1458 3.11475Z" fill="white"/>
<path d="M56.2867 26.952H70.6801C70.7568 26.9502 70.83 26.9189 70.8843 26.8646C70.9385 26.8103 70.9698 26.7372 70.9717 26.6605V22.9554C70.9701 20.365 69.9511 17.8789 68.1341 16.0326C66.3171 14.1864 63.8476 13.1278 61.2575 13.0849C54.9853 12.9853 50.8607 16.0645 50.8607 22.223V27.1014C50.8607 33.0962 53.8262 37.0573 59.6788 37.1924H70.6801C70.7574 37.1924 70.8316 37.1617 70.8863 37.107C70.9409 37.0523 70.9717 36.9781 70.9717 36.9008V32.3851C70.9698 32.3083 70.9385 32.2352 70.8843 32.1809C70.83 32.1266 70.7568 32.0953 70.6801 32.0935H60.4468C57.517 32.0935 56.0876 30.1521 56.0378 27.2649C56.0022 26.9662 56.1302 26.952 56.2867 26.952ZM60.9589 17.4939C63.8745 17.4939 65.7875 18.8522 65.8728 21.7038C65.871 21.7561 65.8495 21.8057 65.8125 21.8427C65.7756 21.8796 65.7259 21.9012 65.6737 21.903H56.18C56.1272 21.903 56.0766 21.882 56.0392 21.8446C56.0019 21.8073 55.9809 21.7566 55.9809 21.7038C56.0876 18.8522 58.0432 17.4939 60.9589 17.4939Z" fill="white"/>
</g>
<defs>
<clipPath id="clip0">
<rect width="124.719" height="50" fill="white"/>
</clipPath>
</defs>
</svg>
